<svg width="1111" height="304" viewBox="0 0 1111 304" fill="none" xmlns="http://www.w3.org/2000/svg">
<path d="M880.481 91.3201L921.561 61.0401H784.061V242.89H921.561V212.61H823.301V166.06H907.111V135.78H823.301V91.3201H880.481Z" fill="#21A038"/>
<path d="M1032.95 61.0401H958.091V242.89H997.331V191.38H1032.95C1080.72 191.38 1110.4 166.26 1110.4 126.12C1110.4 85.9801 1080.73 61.0401 1032.95 61.0401ZM1032.11 161.1H997.331V91.3201H1032.11C1057.25 91.3201 1071.1 103.71 1071.1 126.21C1071.1 148.71 1057.26 161.1 1032.11 161.1Z" fill="#21A038"/>
<path d="M680.281 131.93H632.531V91.3201H708.761L749.841 61.0401H593.291V242.89H675.221C721.171 242.89 747.531 222.07 747.531 185.76C747.531 151.05 723.641 131.93 680.281 131.93ZM673.451 212.61H632.531V162.2H673.451C698.361 162.2 709.961 170.63 709.961 187.4C709.951 204.54 697.671 212.61 673.451 212.61Z" fill="#21A038"/>
<path d="M525.931 203.52C515.871 209.07 504.151 212.01 492.061 212.01C456.681 212.01 431.011 186.76 431.011 151.97C431.011 117.18 456.691 91.9301 492.061 91.9301C505.441 91.9301 517.441 95.6901 527.751 103.1L555.891 82.36L554.031 80.7301C537.601 66.2901 515.641 58.6601 490.541 58.6601C463.311 58.6601 438.591 67.84 420.951 84.5201C403.201 101.29 393.431 124.89 393.431 150.97C393.431 177.17 403.171 201.12 420.851 218.4C438.591 235.74 463.251 245.29 490.291 245.29C518.581 245.29 543.281 235.43 560.021 217.48C547.101 207.96 534.631 198.77 534.631 198.77L525.931 203.52Z" fill="#21A038"/>
<path d="M216.901 56.04L246.291 34.38C220.351 13.42 187.341 0.850006 151.391 0.850006V35.76C175.681 35.76 198.241 43.25 216.901 56.04Z" fill="url(#paint0_linear)"/>
<path d="M302.501 151.96C302.501 142.72 301.671 133.67 300.081 124.89L267.551 148.86C267.581 149.89 267.591 150.92 267.591 151.96C267.591 186.08 252.811 216.81 229.311 238.09L252.761 264.01C283.311 236.37 302.501 196.41 302.501 151.96Z" fill="#21A038"/>
<path d="M151.39 268.17C117.27 268.17 86.5398 253.39 65.2598 229.89L39.3398 253.34C66.9898 283.88 106.95 303.07 151.39 303.07V268.17Z" fill="url(#paint1_linear)"/>
<path d="M73.4701 65.83L50.0201 39.9101C19.48 67.5601 0.290039 107.52 0.290039 151.96H35.2C35.19 117.84 49.9701 87.11 73.4701 65.83Z" fill="url(#paint2_linear)"/>
<path d="M35.1901 151.96C35.1901 150.01 35.2401 148.08 35.3401 146.15L0.480042 144.41C0.360042 146.91 0.290039 149.43 0.290039 151.96C0.290039 193.69 17.2 231.47 44.55 258.81L69.2701 234.09C48.2201 213.05 35.1901 184 35.1901 151.96Z" fill="url(#paint3_linear)"/>
<path d="M151.39 35.76C153.34 35.76 155.27 35.83 157.2 35.92L158.94 1.04001C156.44 0.920009 153.92 0.850006 151.39 0.850006C109.66 0.850006 71.88 17.76 44.54 45.11L69.26 69.83C90.3 48.79 119.36 35.76 151.39 35.76Z" fill="url(#paint4_linear)"/>
<path d="M151.39 268.17C149.44 268.17 147.51 268.12 145.58 268.02L143.84 302.88C146.34 303 148.86 303.07 151.39 303.07C193.12 303.07 230.9 286.16 258.24 258.81L233.52 234.09C212.48 255.13 183.43 268.17 151.39 268.17Z" fill="url(#paint5_linear)"/>
<path d="M270.97 59.58C278.11 68.8 284.21 78.87 289.08 89.62L151.39 191.09L93.8701 155.03V111.65L151.39 147.71L270.97 59.58Z" fill="#21A038"/>
<defs>
<linearGradient id="paint0_linear" x1="144.088" y1="12.5528" x2="239.069" y2="41.8585" gradientUnits="userSpaceOnUse">
<stop offset="0.0566" stop-color="#0291EB"/>
<stop offset="0.79" stop-color="#0C8ACB"/>
</linearGradient>
<linearGradient id="paint1_linear" x1="48.0935" y1="249.097" x2="151.481" y2="287.726" gradientUnits="userSpaceOnUse">
<stop offset="0.1324" stop-color="#F2E913"/>
<stop offset="0.2977" stop-color="#EBE716"/>
<stop offset="0.5306" stop-color="#D9E01F"/>
<stop offset="0.8023" stop-color="#BBD62D"/>
<stop offset="0.9829" stop-color="#A3CD39"/>
</linearGradient>
<linearGradient id="paint2_linear" x1="13.2842" y1="156.194" x2="54.7843" y2="48.237" gradientUnits="userSpaceOnUse">
<stop offset="0.0698" stop-color="#A3CD39"/>
<stop offset="0.2599" stop-color="#81C55F"/>
<stop offset="0.9216" stop-color="#0FA8E0"/>
</linearGradient>
<linearGradient id="paint3_linear" x1="51.6054" y1="254.446" x2="13.463" y2="144.192" gradientUnits="userSpaceOnUse">
<stop offset="0.1444" stop-color="#F2E913"/>
<stop offset="0.3037" stop-color="#E7E518"/>
<stop offset="0.5823" stop-color="#CADB26"/>
<stop offset="0.891" stop-color="#A3CD39"/>
</linearGradient>
<linearGradient id="paint4_linear" x1="54.5119" y1="51.2925" x2="152.751" y2="13.8557" gradientUnits="userSpaceOnUse">
<stop offset="0.0592" stop-color="#0FA8E0"/>
<stop offset="0.5385" stop-color="#0099F9"/>
<stop offset="0.9234" stop-color="#0291EB"/>
</linearGradient>
<linearGradient id="paint5_linear" x1="141.54" y1="282.014" x2="252.631" y2="256.906" gradientUnits="userSpaceOnUse">
<stop offset="0.1226" stop-color="#A3CD39"/>
<stop offset="0.2846" stop-color="#86C339"/>
<stop offset="0.8693" stop-color="#21A038"/>
</linearGradient>
</defs>
</svg>
